<mxfile host="app.diagrams.net" modified="2022-05-25T19:37:12.054Z" agent="5.0 (Windows NT 10.0; Win64; x64) AppleWebKit/537.36 (KHTML, like Gecko) Chrome/101.0.4951.64 Safari/537.36 Edg/101.0.1210.53" etag="FfxN9bKfFohtAM6LmZPV" version="18.1.2" type="github">
  <diagram id="CYms357M9IINYG30bXpw" name="Page-1">
    <mxGraphModel dx="1278" dy="571" grid="1" gridSize="10" guides="1" tooltips="1" connect="1" arrows="1" fold="1" page="1" pageScale="1" pageWidth="827" pageHeight="1169" math="0" shadow="0">
      <root>
        <mxCell id="0" />
        <mxCell id="1" parent="0" />
        <mxCell id="O2R2ElD3qq0XadTc_z8P-17" style="edgeStyle=orthogonalEdgeStyle;rounded=0;orthogonalLoop=1;jettySize=auto;html=1;entryX=1;entryY=0.5;entryDx=0;entryDy=0;endArrow=none;endFill=0;" edge="1" parent="1">
          <mxGeometry relative="1" as="geometry">
            <mxPoint x="480" y="240" as="sourcePoint" />
            <mxPoint x="280" y="240" as="targetPoint" />
          </mxGeometry>
        </mxCell>
        <mxCell id="O2R2ElD3qq0XadTc_z8P-20" value="solicita(localização, destino)&amp;nbsp;" style="edgeLabel;html=1;align=center;verticalAlign=middle;resizable=0;points=[];" vertex="1" connectable="0" parent="O2R2ElD3qq0XadTc_z8P-17">
          <mxGeometry x="0.292" y="-2" relative="1" as="geometry">
            <mxPoint x="8" y="-25" as="offset" />
          </mxGeometry>
        </mxCell>
        <mxCell id="O2R2ElD3qq0XadTc_z8P-18" style="edgeStyle=orthogonalEdgeStyle;rounded=0;orthogonalLoop=1;jettySize=auto;html=1;endArrow=none;endFill=0;" edge="1" parent="1">
          <mxGeometry relative="1" as="geometry">
            <mxPoint x="515" y="280" as="sourcePoint" />
            <mxPoint x="515" y="430" as="targetPoint" />
          </mxGeometry>
        </mxCell>
        <mxCell id="O2R2ElD3qq0XadTc_z8P-24" style="edgeStyle=orthogonalEdgeStyle;rounded=0;orthogonalLoop=1;jettySize=auto;html=1;exitX=0;exitY=0.5;exitDx=0;exitDy=0;exitPerimeter=0;endArrow=none;endFill=0;" edge="1" parent="1" source="O2R2ElD3qq0XadTc_z8P-21">
          <mxGeometry relative="1" as="geometry">
            <mxPoint x="430" y="215" as="targetPoint" />
          </mxGeometry>
        </mxCell>
        <mxCell id="O2R2ElD3qq0XadTc_z8P-21" value="" style="html=1;shadow=0;dashed=0;align=center;verticalAlign=middle;shape=mxgraph.arrows2.arrow;dy=0.6;dx=40;notch=0;" vertex="1" parent="1">
          <mxGeometry x="450" y="206" width="16" height="17" as="geometry" />
        </mxCell>
        <mxCell id="O2R2ElD3qq0XadTc_z8P-25" value="Object" style="html=1;rounded=0;sketch=0;" vertex="1" parent="1">
          <mxGeometry x="250" y="350" width="110" height="50" as="geometry" />
        </mxCell>
        <mxCell id="O2R2ElD3qq0XadTc_z8P-26" value="Object" style="html=1;rounded=0;sketch=0;" vertex="1" parent="1">
          <mxGeometry x="260" y="360" width="110" height="50" as="geometry" />
        </mxCell>
        <mxCell id="O2R2ElD3qq0XadTc_z8P-27" value=":Cliente" style="html=1;rounded=0;sketch=0;" vertex="1" parent="1">
          <mxGeometry x="270" y="370" width="110" height="50" as="geometry" />
        </mxCell>
        <mxCell id="O2R2ElD3qq0XadTc_z8P-28" value=":Cliente" style="html=1;rounded=0;sketch=0;" vertex="1" parent="1">
          <mxGeometry x="260" y="230" width="110" height="50" as="geometry" />
        </mxCell>
      </root>
    </mxGraphModel>
  </diagram>
</mxfile>
